<?xml version="1.0" encoding="utf-8"?>
<!-- Generator: Adobe Illustrator 27.1.1, SVG Export Plug-In . SVG Version: 6.00 Build 0)  -->
<svg version="1.1" id="Layer_1" xmlns="http://www.w3.org/2000/svg" xmlns:xlink="http://www.w3.org/1999/xlink" x="0px" y="0px"
	 viewBox="0 0 400 400" style="enable-background:new 0 0 400 400;" xml:space="preserve">
<style type="text/css">
	.st0{fill:#6C19F0;}
	.st1{fill:#94BFF2;}
</style>
<g>
	<path class="st0" d="M347.2,175.3c-21,11.5-42.9,21.4-62.6,34.8c-20.5,13.9-40.7,29.2-57.8,47c-40,41.8-43.6,72.8-17.8,124H52.8
		c11-28.7,28.3-51.8,49.2-72.2c18-17.6,37.3-33.1,57.5-47c6.2-4.3,12.6-8.4,19-12.4c12-7.4,24.2-14.4,36.7-20.9
		c4.7-2.4,9.4-4.8,14.1-7.1c25.7-12.6,52.3-23.7,79.4-34c12.6-4.8,25.3-9,38-13.5C346.9,174.4,347.1,174.8,347.2,175.3z"/>
</g>
<g>
	<path class="st1" d="M279,180.5c0.2,3.1-3.1,8.1-6.1,9.5c-13.3,6.4-26.9,11.9-43.6,19.1v-133c0-2-0.8-3.8-2.1-5
		c-1.3-1.3-3.1-2.1-5-2.1c-3.9,0-7.1,3.2-7.1,7.1v139.3c-2.4,3.5-6.6,5.3-13,5.8V17.8c36.2,21.4,63.4,47.9,71.2,88.3
		C278,130.4,277.7,155.6,279,180.5z"/>
</g>
<g>
	<path class="st0" d="M279.6,225.5c0,49.8,0,95.9,0,142c0,4.2-0.4,8.3-0.8,14.6c-16.7,0-33,0.3-49.2-0.3c-3-0.1-6.4-3.6-8.8-6.2
		c-20.6-22.3-24.6-48-11.5-75.8C224,268.6,249.2,247,279.6,225.5z"/>
</g>
<g>
	<path class="st1" d="M187.8,225.1c-0.1,4.6-5.8,9.1-9.3,13.6v-47.9c0-2.6-1.1-5-2.8-6.7c-1.7-1.7-4.1-2.8-6.7-2.8
		c-5.2,0-9.5,4.2-9.5,9.5v57c-2.3,3-5.4,5.8-9.6,8.3c-15,9.3-28.5,21.2-42.7,32c-10.7-73.7,19.4-130.2,81-157.7
		C188.3,163.2,188.7,194.2,187.8,225.1z"/>
</g>
</svg>
